<svg xmlns="http://www.w3.org/2000/svg" viewBox="0 0 128 128"><defs><style>.a{fill:#ed1c24;}</style></defs><title>favicon</title><path d="M7.58,101.12H72.82l2.81-15.75h-54a3.59,3.59,0,0,1-3-1.35,3.76,3.76,0,0,1-.73-3.15L24,47.13A5.56,5.56,0,0,1,25.86,44a5,5,0,0,1,3.43-1.35h54l2.81-15.75H20.85a10.25,10.25,0,0,0-6.8,2.65,10.73,10.73,0,0,0-3.77,6.35L.16,92.12a7.43,7.43,0,0,0,1.52,6.36A7.27,7.27,0,0,0,7.58,101.12Z"/><path class="a" d="M114,20.41C103.45,8.66,88.51,2.18,71.94,2.18A67.4,67.4,0,0,0,31.07,16.51H57.71a52.21,52.21,0,0,1,14.23-2c13,0,24.7,5,32.87,14.14s12,21.52,10.56,34.69c-3,27.66-28,50.17-55.63,50.17a45.93,45.93,0,0,1-18.83-3.92H19.58c10.4,10.49,24.55,16.24,40.16,16.24,33.74,0,64.19-27.43,67.88-61.15C129.45,48,124.61,32.26,114,20.41Z"/></svg>