<svg xmlns="http://www.w3.org/2000/svg" viewBox="0 0 128 128"><title>logo</title><path d="M54.46,45.47l5.47,9.43h3.19l2.36-13.16h-2.8L61,51.35,55.5,41.74H52.31L50,54.9h2.8ZM38.81,54.9,39.88,53h5.28l.43,1.93h3.19L45.94,41.74H42.75L35.61,54.9ZM43.65,46l.91,4.2H41.38ZM67.57,54.9l1.71-9.43,5.47,9.43h3.19L80.3,41.74H77.5l-1.72,9.61-5.46-9.61H67.13L64.78,54.9ZM95,54.44a1.3,1.3,0,0,0,1,.46h11.57l.5-2.79H98.55a.63.63,0,0,1-.53-.24.65.65,0,0,1-.13-.56l1.72-9.57h-2.8L94.73,53.31A1.32,1.32,0,0,0,95,54.44Zm-14.85,0a1.3,1.3,0,0,0,1,.46H92.77l.49-2.79H83.69a.65.65,0,0,1-.53-.24.72.72,0,0,1-.13-.56l.29-1.59h8.37l.52-2.8H83.83l.28-1.59a1,1,0,0,1,.33-.56.89.89,0,0,1,.61-.24h9.57l.5-2.79H83.55a1.79,1.79,0,0,0-1.21.47,1.91,1.91,0,0,0-.67,1.12l-1.79,10A1.32,1.32,0,0,0,80.15,54.44Zm-56.57.46.77-4.39a.93.93,0,0,1,.34-.55.88.88,0,0,1,.6-.24h6a.65.65,0,0,1,.66.79l-.76,4.39H34l2.36-13.16h-2.8l-.76,4.39a1,1,0,0,1-.34.56,1,1,0,0,1-.6.23h-6a.67.67,0,0,1-.53-.23.69.69,0,0,1-.13-.56l.77-4.39h-2.8L20.79,54.9Zm-16.44,0H18.71l.5-2.79H9.63a.65.65,0,0,1-.53-.24A.68.68,0,0,1,9,51.31l1.08-6a1,1,0,0,1,.33-.56.89.89,0,0,1,.61-.24h9.57l.5-2.79H9.49a1.75,1.75,0,0,0-1.2.47,1.86,1.86,0,0,0-.67,1.12l-1.8,10a1.32,1.32,0,0,0,.27,1.13A1.3,1.3,0,0,0,7.14,54.9Zm73.24,3.29a2.34,2.34,0,0,0-1.94-.86H60.1a3.3,3.3,0,0,0-2.21.86,3.4,3.4,0,0,0-1.23,2.07L52.84,81.53H58l1.09-5.87a1.88,1.88,0,0,1,.61-1,1.63,1.63,0,0,1,1.11-.44h11a1.13,1.13,0,0,1,.93.44,1.33,1.33,0,0,1,.27,1l-1,5.87H77l1.25-7s0-.37-.11-1a1.58,1.58,0,0,0-.26-.88,2.32,2.32,0,0,0-2-1,3.44,3.44,0,0,0,2.27-.86,3.52,3.52,0,0,0,1.24-2.07l1.48-8.44A2.47,2.47,0,0,0,80.38,58.19Zm-5.32,5.74-.66,3.66a1.75,1.75,0,0,1-.62,1,1.68,1.68,0,0,1-1.1.44h-11a1.18,1.18,0,0,1-1-.44,1.23,1.23,0,0,1-.24-1l.66-3.66a1.77,1.77,0,0,1,.6-1,1.67,1.67,0,0,1,1.12-.44h11a1.18,1.18,0,0,1,1,.44A1.23,1.23,0,0,1,75.06,63.93Zm30.58-6.6H87.31a3.3,3.3,0,0,0-2.22.86,3.5,3.5,0,0,0-1.23,2.07l-3.3,18.33a2.42,2.42,0,0,0,.5,2.07,2.35,2.35,0,0,0,1.92.87h18.33a3.31,3.31,0,0,0,2.22-.87,3.5,3.5,0,0,0,1.23-2.07l3.3-18.33a2.41,2.41,0,0,0-.48-2.07A2.33,2.33,0,0,0,105.64,57.33Zm-3.38,6.6-2,11a1.76,1.76,0,0,1-.61,1,1.58,1.58,0,0,1-1.11.44h-11a1.15,1.15,0,0,1-1-.44,1.22,1.22,0,0,1-.24-1l2-11a1.84,1.84,0,0,1,.61-1,1.64,1.64,0,0,1,1.11-.44h11a1.18,1.18,0,0,1,1,.44A1.23,1.23,0,0,1,102.26,63.93Zm-74-1.46.92-5.14H5l-.91,5.13H20.18L1.55,76.39.64,81.53H24.83l.92-5.14H9.57ZM33.55,76a1.22,1.22,0,0,1-.24-1L33.84,72H49.22l1-5.13H34.77l.52-2.93a1.77,1.77,0,0,1,.6-1A1.67,1.67,0,0,1,37,62.46h17.6l.91-5.13H34.26a3.3,3.3,0,0,0-2.22.86,3.45,3.45,0,0,0-1.23,2.07l-3.3,18.33A2.41,2.41,0,0,0,28,80.66a2.37,2.37,0,0,0,1.93.87H51.19l.92-5.14H34.52A1.14,1.14,0,0,1,33.55,76Z" style="fill:#fff"/><path d="M1.32,84.1A.21.21,0,0,1,1.48,84h2.6l.14-.76H1.07a.5.5,0,0,0-.32.13.6.6,0,0,0-.19.31L.33,85a.34.34,0,0,0,.07.3.33.33,0,0,0,.28.13H2.85a.18.18,0,0,1,.15.07.19.19,0,0,1,0,.15l0,.22A.3.3,0,0,1,2.9,86a.25.25,0,0,1-.16.06H.14L0,86.85H3.15a.47.47,0,0,0,.32-.13.47.47,0,0,0,.18-.3l.24-1.3a.35.35,0,0,0-.35-.44H1.37a.2.2,0,0,1-.15-.06.21.21,0,0,1,0-.15l0-.22A.24.24,0,0,1,1.32,84.1ZM4.2,86.85H5l.64-3.58H4.84ZM7,84.1A.21.21,0,0,1,7.16,84H9.77l.13-.76H6.76a.54.54,0,0,0-.51.44l-.49,2.71a.35.35,0,0,0,.36.43H8.83a.55.55,0,0,0,.51-.43l.24-1.36H8.82l-.15.82a.3.3,0,0,1-.09.15.25.25,0,0,1-.16.06H6.79A.18.18,0,0,1,6.65,86a.21.21,0,0,1,0-.15l.29-1.63A.24.24,0,0,1,7,84.1Zm6.09.37a.26.26,0,0,1-.1.15.25.25,0,0,1-.16.06H11.21a.2.2,0,0,1-.15-.06.21.21,0,0,1,0-.15l.21-1.2h-.76l-.64,3.58h.76l.2-1.19a.31.31,0,0,1,.1-.15.21.21,0,0,1,.16-.07h1.62a.17.17,0,0,1,.15.07.19.19,0,0,1,0,.15l-.21,1.19h.76l.65-3.58h-.77ZM14.64,84h1.19a.15.15,0,0,1,.14.07.16.16,0,0,1,0,.15l-.47,2.6h.76l.47-2.6a.24.24,0,0,1,.09-.15A.2.2,0,0,1,17,84h1.19l.14-.76H14.77Zm7.64.83a.58.58,0,0,0-.57.57.57.57,0,0,0,1.14,0A.56.56,0,0,0,22.28,84.86Zm4.31-1.46a.52.52,0,0,0-.18.31L26.17,85a.38.38,0,0,0,.07.3.35.35,0,0,0,.29.13H28.7a.16.16,0,0,1,.14.07.19.19,0,0,1,0,.15l0,.22a.6.6,0,0,1-.09.15.27.27,0,0,1-.17.06H26l-.14.76H29a.55.55,0,0,0,.51-.43l.23-1.3a.37.37,0,0,0-.07-.31.36.36,0,0,0-.28-.13H27.21a.17.17,0,0,1-.14-.06.17.17,0,0,1,0-.15l0-.22a.24.24,0,0,1,.09-.15.22.22,0,0,1,.17-.07h2.6l.13-.76H26.92A.53.53,0,0,0,26.59,83.4Zm7.24-.13H31.12a.54.54,0,0,0-.51.44l-.49,2.71a.32.32,0,0,0,.08.3.33.33,0,0,0,.28.13h2.71a.55.55,0,0,0,.51-.43l.49-2.71a.36.36,0,0,0-.36-.44ZM33,85.88A.3.3,0,0,1,33,86a.27.27,0,0,1-.17.06H31.16A.17.17,0,0,1,31,86a.17.17,0,0,1,0-.15l.29-1.63a.24.24,0,0,1,.09-.15.23.23,0,0,1,.17-.07h1.62a.18.18,0,0,1,.15.07.19.19,0,0,1,0,.15Zm4.29,0a.3.3,0,0,1-.09.15.25.25,0,0,1-.16.06H35.45a.17.17,0,0,1-.14-.06.17.17,0,0,1,0-.15l.47-2.61H35l-.56,3.15a.32.32,0,0,0,.07.3.33.33,0,0,0,.28.13h2.72a.47.47,0,0,0,.32-.13.54.54,0,0,0,.19-.3l.56-3.15H37.8Zm4.3,0-1.48-2.62h-.87l-.64,3.58h.76l.46-2.56,1.49,2.56h.87l.64-3.58H42.1Zm5.1-2.62H43.58l-.64,3.58h3.15a.47.47,0,0,0,.32-.13.54.54,0,0,0,.19-.3l.48-2.71A.34.34,0,0,0,47,83.4.36.36,0,0,0,46.73,83.27Zm-.8,2.61a.3.3,0,0,1-.09.15.25.25,0,0,1-.16.06H43.84L44.2,84h1.85a.15.15,0,0,1,.14.07.19.19,0,0,1,0,.15Zm5.37-1a.57.57,0,0,0,0,1.14.58.58,0,0,0,.58-.57A.57.57,0,0,0,51.3,84.86Zm4.3-1.46a.52.52,0,0,0-.18.31L55.19,85a.34.34,0,0,0,.07.3.33.33,0,0,0,.28.13h2.17a.15.15,0,0,1,.14.07.16.16,0,0,1,0,.15l0,.22a.3.3,0,0,1-.09.15.25.25,0,0,1-.16.06H55l-.13.76H58a.55.55,0,0,0,.51-.43l.24-1.3a.41.41,0,0,0-.07-.31.38.38,0,0,0-.29-.13H56.23a.19.19,0,0,1-.15-.06.21.21,0,0,1,0-.15l0-.22a.24.24,0,0,1,.09-.15.2.2,0,0,1,.16-.07h2.6l.14-.76H55.93A.53.53,0,0,0,55.6,83.4Zm4.1-.13-.14.76h1.19a.18.18,0,0,1,.15.07.19.19,0,0,1,0,.15l-.46,2.6h.75l.47-2.6a.24.24,0,0,1,.09-.15A.22.22,0,0,1,62,84h1.19l.13-.76Zm7.23,0H64.22a.54.54,0,0,0-.51.44l-.49,2.71a.35.35,0,0,0,.36.43h2.71a.55.55,0,0,0,.51-.43l.49-2.71a.36.36,0,0,0-.36-.44Zm-.5,1-.29,1.63a.3.3,0,0,1-.09.15.27.27,0,0,1-.17.06H64.26a.2.2,0,0,1-.15-.06.21.21,0,0,1,0-.15l.29-1.63a.24.24,0,0,1,.09-.15.22.22,0,0,1,.17-.07h1.62a.15.15,0,0,1,.14.07A.16.16,0,0,1,66.43,84.25Zm4.79-1H68.51a.54.54,0,0,0-.51.44l-.56,3.14h.76l.16-.86a.29.29,0,0,1,.09-.16.25.25,0,0,1,.16-.06h1.62a.17.17,0,0,1,.14.06.17.17,0,0,1,0,.15l-.15.87H71l.18-1s0,0,0-.15a.33.33,0,0,0,0-.13.35.35,0,0,0-.31-.15.48.48,0,0,0,.34-.13.5.5,0,0,0,.18-.3l.22-1.25a.37.37,0,0,0-.07-.31A.36.36,0,0,0,71.22,83.27Zm-.59,1.52a.25.25,0,0,1-.1.15.21.21,0,0,1-.16.07H68.75a.18.18,0,0,1-.15-.07.19.19,0,0,1,0-.15l.1-.54a.24.24,0,0,1,.09-.15.2.2,0,0,1,.16-.07h1.63a.16.16,0,0,1,.14.07.19.19,0,0,1,0,.15ZM75,84.47a.3.3,0,0,1-.09.15.25.25,0,0,1-.16.06H73.1a.17.17,0,0,1-.14-.06.17.17,0,0,1,0-.15l.21-1.2h-.76l-.31,1.79a.26.26,0,0,0,0,.23.24.24,0,0,0,.21.1h.87c.08,0,.13,0,.14.06a.19.19,0,0,1,0,.16l-.23,1.24h.76l.23-1.24a.29.29,0,0,1,.09-.16l.16-.06h.87a.36.36,0,0,0,.25-.1.36.36,0,0,0,.13-.23L76,83.27h-.76Zm5,.39a.58.58,0,0,0-.57.57.57.57,0,0,0,1.14,0A.56.56,0,0,0,80,84.86Zm4.31-1.46a.52.52,0,0,0-.18.31L83.87,85a.38.38,0,0,0,.07.3.35.35,0,0,0,.29.13H86.4a.16.16,0,0,1,.14.07.19.19,0,0,1,0,.15l0,.22a.6.6,0,0,1-.09.15.27.27,0,0,1-.17.06h-2.6l-.14.76h3.15a.55.55,0,0,0,.51-.43l.23-1.3a.37.37,0,0,0-.07-.31.36.36,0,0,0-.28-.13H84.91a.17.17,0,0,1-.14-.06.17.17,0,0,1,0-.15l0-.22a.24.24,0,0,1,.09-.15A.22.22,0,0,1,85,84h2.6l.13-.76H84.62A.53.53,0,0,0,84.29,83.4Zm3.95.63h1.2a.15.15,0,0,1,.14.07.16.16,0,0,1,0,.15l-.47,2.6h.76l.47-2.6a.24.24,0,0,1,.09-.15.2.2,0,0,1,.16-.07h1.19l.14-.76H88.38Zm6.84.44a.3.3,0,0,1-.09.15.27.27,0,0,1-.17.06H93.2a.2.2,0,0,1-.15-.06.21.21,0,0,1,0-.15l.21-1.2h-.76l-.32,1.79a.3.3,0,0,0,.06.23.24.24,0,0,0,.21.1h.86a.31.31,0,0,1,.15.06.22.22,0,0,1,0,.16l-.22,1.24H94l.22-1.24a.29.29,0,0,1,.09-.16l.17-.06h.86a.35.35,0,0,0,.25-.1.37.37,0,0,0,.14-.23l.32-1.79h-.76ZM97,86a.21.21,0,0,1,0-.15l.47-2.61h-.77l-.56,3.15a.35.35,0,0,0,.36.43h3.14l.14-.76h-2.6A.2.2,0,0,1,97,86Zm4.23-1.93a.23.23,0,0,1,.17-.07H104l.14-.76H101a.54.54,0,0,0-.51.44L100,86.42a.35.35,0,0,0,.08.3.33.33,0,0,0,.28.13h3.15l.13-.76H101a.17.17,0,0,1-.14-.06.17.17,0,0,1,0-.15l.08-.44h2.27l.14-.76h-2.27l.07-.43A.29.29,0,0,1,101.21,84.1Z" style="fill:#6d6e71"/><path d="M120.24,39.87A30.74,30.74,0,0,0,97,29.78a37.26,37.26,0,0,0-22.62,7.93H89.09A28.83,28.83,0,0,1,97,36.6a24,24,0,0,1,18.2,7.82A24.35,24.35,0,0,1,121,63.63c-1.68,15.31-15.49,27.77-30.8,27.77a25.34,25.34,0,0,1-10.42-2.17H68a30.85,30.85,0,0,0,22.23,9c18.68,0,35.54-15.18,37.58-33.85A31.09,31.09,0,0,0,120.24,39.87Z" style="fill:#ed1c24"/></svg>